<?xml version="1.0" encoding="utf-8"?>
<svg viewBox="31.915 24.823 401.3 349.882" xmlns="http://www.w3.org/2000/svg">
  <g transform="matrix(0.10000000149011613, 0, 0, -0.10000000149011613, 32.943466186523445, 371.6648254394532)" fill="#000000" stroke="none">
    <path style="fill: white; stroke: rgb(0, 0, 0);" d="M 1886.878 3367.95 C 1977.5 3367.95 1880.968 3373.86 1904.608 3362.04 C 1908.132 3360.278 1912.691 3363.286 1916.428 3362.04 C 1919.072 3361.159 1919.695 3357.011 1922.339 3356.129 C 1926.077 3354.884 1930.635 3357.892 1934.159 3356.129 C 1935.921 3355.248 1932.766 3351.612 1934.159 3350.219 C 1935.552 3348.826 1938.307 3351.1 1940.069 3350.219 C 1942.561 3348.973 1943.487 3345.555 1945.979 3344.309 C 1949.503 3342.547 1954.276 3346.071 1957.8 3344.309 C 1972.406 3337.006 1955.76 3338.399 1969.62 3338.399 C 1975.53 3338.399 1982.064 3341.042 1987.35 3338.399 C 1989.113 3337.518 1985.957 3333.882 1987.35 3332.489 C 1990.137 3329.703 1995.231 3332.489 1999.171 3332.489 C 2013.031 3332.489 1996.385 3333.882 2010.991 3326.579 C 2012.753 3325.698 2015.508 3327.972 2016.901 3326.579 C 2018.294 3325.186 2015.139 3321.55 2016.901 3320.669 C 2020.569 3318.835 2035.305 3320.669 2040.542 3320.669 C 2054.402 3320.669 2037.756 3322.062 2052.362 3314.758 C 2061.819 3310.03 2078.367 3319.487 2087.823 3314.758 C 2090.315 3313.512 2091.241 3310.094 2093.733 3308.848 C 2095.495 3307.967 2097.775 3309.471 2099.644 3308.848 C 2103.823 3307.455 2107.285 3304.331 2111.464 3302.938 C 2115.202 3301.692 2119.76 3304.7 2123.284 3302.938 C 2125.776 3301.692 2126.702 3298.274 2129.194 3297.028 C 2130.956 3296.147 2133.342 3297.909 2135.104 3297.028 C 2137.596 3295.782 2138.523 3292.364 2141.015 3291.118 C 2145.743 3288.754 2154.017 3293.482 2158.745 3291.118 C 2161.237 3289.872 2162.164 3286.454 2164.655 3285.208 C 2168.18 3283.446 2172.952 3286.97 2176.476 3285.208 C 2176.477 3285.207 2188.295 3273.387 2188.296 3273.387 C 2192.034 3272.141 2196.379 3274.633 2200.116 3273.387 C 2205.403 3271.625 2206.953 3264.059 2211.937 3261.567 C 2247.124 3243.973 2160.47 3301.788 2229.667 3255.657 C 2231.985 3254.111 2232.934 3250.627 2235.577 3249.746 C 2239.315 3248.5 2243.66 3250.992 2247.398 3249.746 C 2250.041 3248.865 2250.816 3245.082 2253.308 3243.836 C 2256.832 3242.074 2261.604 3245.598 2265.128 3243.836 C 2267.62 3242.59 2268.546 3239.172 2271.038 3237.926 C 2272.8 3237.045 2275.555 3239.319 2276.948 3237.926 C 2278.342 3236.533 2275.555 3233.409 2276.948 3232.016 C 2278.342 3230.623 2281.466 3233.409 2282.859 3232.016 C 2284.252 3230.623 2281.466 3227.499 2282.859 3226.106 C 2284.252 3224.713 2287.376 3227.499 2288.769 3226.106 C 2290.162 3224.713 2287.376 3221.589 2288.769 3220.196 C 2290.162 3218.803 2293.286 3221.589 2294.679 3220.196 C 2296.072 3218.803 2293.286 3215.679 2294.679 3214.285 C 2296.072 3212.892 2298.827 3215.167 2300.589 3214.285 C 2302.165 3213.497 2310.833 3203.253 2312.41 3202.465 C 2314.172 3201.584 2316.927 3203.858 2318.32 3202.465 C 2319.713 3201.072 2316.927 3197.948 2318.32 3196.555 C 2319.713 3195.162 2322.468 3197.436 2324.23 3196.555 C 2329.214 3194.063 2331.414 3187.826 2336.05 3184.735 C 2339.716 3182.291 2344.205 3181.268 2347.871 3178.825 C 2350.189 3177.279 2351.138 3173.795 2353.781 3172.914 C 2357.519 3171.668 2362.077 3174.676 2365.601 3172.914 C 2367.363 3172.033 2364.208 3168.397 2365.601 3167.004 C 2366.994 3165.611 2370.118 3168.397 2371.511 3167.004 C 2372.904 3165.611 2370.118 3162.487 2371.511 3161.094 C 2372.904 3159.701 2375.659 3161.975 2377.421 3161.094 C 2382.405 3158.602 2384.258 3151.766 2389.242 3149.274 C 2391.004 3148.393 2393.759 3150.667 2395.152 3149.274 C 2396.545 3147.881 2393.759 3144.757 2395.152 3143.364 C 2397.938 3140.578 2404.186 3146.15 2406.972 3143.364 C 2419.2 3131.135 2388.286 3143.842 2412.882 3131.543 C 2416.406 3129.781 2421.917 3134.329 2424.703 3131.543 C 2426.096 3130.15 2423.31 3127.026 2424.703 3125.633 C 2426.096 3124.24 2428.851 3126.514 2430.613 3125.633 C 2433.105 3124.387 2434.205 3121.268 2436.523 3119.723 C 2440.188 3117.279 2445.228 3116.928 2448.343 3113.813 C 2449.736 3112.42 2446.95 3109.295 2448.343 3107.902 C 2449.736 3106.509 2452.491 3108.783 2454.253 3107.902 C 2456.745 3106.656 2457.672 3103.238 2460.164 3101.992 C 2463.688 3100.23 2469.198 3104.778 2471.984 3101.992 C 2473.377 3100.599 2470.591 3097.475 2471.984 3096.082 C 2473.377 3094.689 2476.501 3097.475 2477.894 3096.082 C 2479.287 3094.689 2476.501 3091.565 2477.894 3090.172 C 2480.68 3087.386 2486.19 3091.934 2489.715 3090.172 C 2492.207 3088.926 2493.133 3085.508 2495.625 3084.262 C 2497.387 3083.381 2500.142 3085.655 2501.535 3084.262 C 2502.928 3082.869 2500.142 3079.745 2501.535 3078.352 C 2502.928 3076.959 2505.683 3079.233 2507.445 3078.352 C 2532.042 3066.053 2501.127 3078.76 2513.355 3066.531 C 2514.748 3065.138 2517.503 3067.412 2519.265 3066.531 C 2521.757 3065.285 2522.684 3061.867 2525.176 3060.621 C 2528.7 3058.859 2533.472 3062.383 2536.996 3060.621 C 2539.488 3059.375 2540.414 3055.957 2542.906 3054.711 C 2544.668 3053.83 2547.054 3055.592 2548.816 3054.711 C 2551.308 3053.465 2552.234 3050.047 2554.726 3048.801 C 2556.488 3047.92 2558.874 3049.682 2560.636 3048.801 C 2563.128 3047.555 2564.055 3044.137 2566.547 3042.891 C 2570.071 3041.129 2575.581 3045.677 2578.367 3042.891 C 2579.76 3041.498 2576.974 3038.374 2578.367 3036.981 C 2581.153 3034.194 2587.401 3039.767 2590.187 3036.981 C 2591.58 3035.588 2588.794 3032.463 2590.187 3031.07 C 2591.58 3029.677 2594.228 3031.693 2596.097 3031.07 C 2638.907 3016.8 2586.779 3032.774 2613.828 3019.25 C 2615.59 3018.369 2618.345 3020.643 2619.738 3019.25 C 2621.131 3017.857 2618.345 3014.733 2619.738 3013.34 C 2622.524 3010.554 2628.034 3015.102 2631.558 3013.34 C 2634.05 3012.094 2634.977 3008.676 2637.468 3007.43 C 2639.231 3006.549 2641.986 3008.823 2643.379 3007.43 C 2644.772 3006.037 2641.986 3002.913 2643.379 3001.52 C 2644.772 3000.127 2647.896 3002.913 2649.289 3001.52 C 2650.682 3000.127 2647.896 2997.003 2649.289 2995.609 C 2652.075 2992.823 2658.323 2998.396 2661.109 2995.609 C 2662.502 2994.216 2659.716 2991.092 2661.109 2989.699 C 2663.895 2986.913 2669.406 2991.461 2672.93 2989.699 C 2677.914 2987.207 2679.766 2980.371 2684.75 2977.879 C 2688.274 2976.117 2693.784 2980.665 2696.57 2977.879 C 2697.963 2976.486 2695.177 2973.362 2696.57 2971.969 C 2708.799 2959.741 2696.092 2990.655 2708.391 2966.059 C 2712.467 2957.906 2701.233 2960.772 2714.301 2954.238 C 2716.063 2953.357 2718.449 2955.119 2720.211 2954.238 C 2722.703 2952.992 2723.629 2949.574 2726.121 2948.328 C 2727.883 2947.447 2730.638 2949.721 2732.031 2948.328 C 2733.424 2946.935 2730.269 2943.299 2732.031 2942.418 C 2735.555 2940.656 2740.114 2943.664 2743.852 2942.418 C 2746.495 2941.537 2747.27 2937.754 2749.762 2936.508 C 2751.524 2935.627 2753.91 2937.389 2755.672 2936.508 C 2758.164 2935.262 2759.09 2931.843 2761.582 2930.598 C 2765.106 2928.835 2770.616 2933.384 2773.402 2930.598 C 2774.795 2929.204 2772.009 2926.08 2773.402 2924.687 C 2776.188 2921.901 2781.699 2926.449 2785.223 2924.687 C 2787.715 2923.441 2788.641 2920.023 2791.133 2918.777 C 2792.895 2917.896 2795.65 2920.17 2797.043 2918.777 C 2800.158 2915.662 2799.838 2910.072 2802.953 2906.957 C 2804.923 2904.987 2812.804 2908.927 2814.774 2906.957 C 2816.167 2905.564 2813.893 2902.809 2814.774 2901.047 C 2827.072 2876.45 2814.366 2907.365 2826.594 2895.137 C 2827.987 2893.744 2824.832 2890.107 2826.594 2889.226 C 2830.118 2887.464 2834.89 2890.988 2838.414 2889.226 C 2840.176 2888.345 2837.021 2884.709 2838.414 2883.316 C 2861.48 2860.25 2841.588 2884.684 2856.145 2877.406 C 2861.129 2874.914 2862.981 2868.078 2867.965 2865.586 C 2882.521 2858.308 2862.63 2882.741 2885.696 2859.676 C 2906.62 2838.751 2854.711 2872.452 2891.606 2847.855 C 2895.271 2845.412 2899.761 2844.389 2903.426 2841.945 C 2914.24 2834.736 2904.016 2834.41 2921.156 2830.125 C 2924.979 2829.169 2929.698 2832.31 2932.977 2830.125 C 2936.642 2827.681 2935.772 2821.419 2938.887 2818.305 C 2951.793 2805.398 2948.483 2817.076 2962.528 2812.394 C 2965.171 2811.513 2965.946 2807.73 2968.438 2806.484 C 2971.59 2804.908 2977.106 2808.06 2980.258 2806.484 C 3004.854 2794.186 2973.94 2806.892 2986.168 2794.664 C 2987.561 2793.271 2990.317 2795.545 2992.079 2794.664 C 2997.062 2792.172 3001.407 2787.827 3003.899 2782.844 C 3007.975 2774.691 2996.742 2777.557 3009.809 2771.023 C 3011.571 2770.142 3013.957 2771.904 3015.719 2771.023 C 3020.703 2768.531 3022.556 2761.695 3027.54 2759.203 C 3029.302 2758.322 3032.057 2760.596 3033.45 2759.203 C 3034.843 2757.81 3032.057 2754.686 3033.45 2753.293 C 3036.236 2750.506 3041.746 2755.055 3045.27 2753.293 C 3050.254 2750.801 3052.106 2743.964 3057.09 2741.472 C 3058.852 2740.591 3061.607 2742.865 3063 2741.472 C 3064.394 2740.079 3061.607 2736.955 3063 2735.562 C 3064.394 2734.169 3067.149 2736.443 3068.911 2735.562 C 3073.895 2733.07 3076.791 2727.682 3080.731 2723.742 C 3082.701 2721.772 3085.395 2720.324 3086.641 2717.832 C 3087.522 2716.07 3085.248 2713.315 3086.641 2711.921 C 3088.034 2710.528 3091.158 2713.315 3092.551 2711.921 C 3093.944 2710.528 3091.158 2707.404 3092.551 2706.011 C 3093.944 2704.618 3097.068 2707.404 3098.461 2706.011 C 3099.854 2704.618 3097.068 2701.494 3098.461 2700.101 C 3101.576 2696.986 3106.616 2696.635 3110.282 2694.191 C 3112.6 2692.646 3113.7 2689.527 3116.192 2688.281 C 3117.954 2687.4 3120.34 2689.162 3122.102 2688.281 C 3127.086 2685.789 3129.286 2679.551 3133.922 2676.461 C 3137.588 2674.017 3141.564 2671.943 3145.743 2670.55 C 3147.612 2669.927 3150.26 2671.943 3151.653 2670.55 C 3153.046 2669.157 3150.26 2666.033 3151.653 2664.64 C 3153.046 2663.247 3156.17 2666.033 3157.563 2664.64 C 3158.956 2663.247 3156.17 2660.123 3157.563 2658.73 C 3160.518 2655.775 3172.339 2661.685 3175.294 2658.73 C 3176.687 2657.337 3173.901 2654.213 3175.294 2652.82 C 3178.08 2650.034 3184.328 2655.606 3187.114 2652.82 C 3188.507 2651.427 3185.721 2648.303 3187.114 2646.91 C 3189.9 2644.124 3196.148 2649.696 3198.934 2646.91 C 3201.72 2644.124 3196.148 2637.876 3198.934 2635.089 C 3200.327 2633.696 3203.451 2636.482 3204.844 2635.089 C 3206.238 2633.696 3203.451 2630.572 3204.844 2629.179 C 3206.238 2627.786 3208.993 2630.06 3210.755 2629.179 C 3217.847 2625.633 3221.393 2614.995 3228.485 2611.449 C 3230.247 2610.568 3232.633 2612.33 3234.395 2611.449 C 3239.379 2608.957 3241.232 2602.12 3246.216 2599.628 C 3247.978 2598.747 3250.364 2600.509 3252.126 2599.628 C 3265.193 2593.094 3253.96 2595.96 3258.036 2587.808 C 3260.528 2582.824 3266.765 2580.624 3269.856 2575.988 C 3274.798 2568.574 3278.578 2556.851 3287.587 2552.347 C 3289.349 2551.466 3292.104 2553.74 3293.497 2552.347 C 3294.89 2550.954 3292.616 2548.199 3293.497 2546.437 C 3294.743 2543.945 3298.161 2543.019 3299.407 2540.527 C 3300.288 2538.765 3298.014 2536.01 3299.407 2534.617 C 3300.8 2533.224 3303.924 2536.01 3305.317 2534.617 C 3306.71 2533.224 3303.924 2530.099 3305.317 2528.706 C 3317.545 2516.479 3304.84 2547.391 3317.138 2522.796 C 3318.019 2521.034 3316.257 2518.648 3317.138 2516.886 C 3318.384 2514.394 3321.802 2513.468 3323.048 2510.976 C 3330.326 2496.419 3305.892 2516.311 3328.958 2493.245 C 3330.351 2491.852 3333.475 2494.638 3334.868 2493.245 C 3336.261 2491.852 3333.987 2489.097 3334.868 2487.335 C 3336.114 2484.843 3339.532 2483.917 3340.778 2481.425 C 3341.659 2479.663 3339.897 2477.277 3340.778 2475.515 C 3343.27 2470.531 3350.107 2468.679 3352.599 2463.695 C 3353.48 2461.933 3351.206 2459.178 3352.599 2457.785 C 3353.992 2456.391 3357.116 2459.178 3358.509 2457.785 C 3359.902 2456.391 3357.628 2453.636 3358.509 2451.874 C 3359.755 2449.382 3362.874 2448.282 3364.419 2445.964 C 3366.862 2442.299 3367.214 2437.259 3370.329 2434.144 C 3371.722 2432.751 3374.846 2435.537 3376.239 2434.144 C 3377.632 2432.751 3375.358 2429.996 3376.239 2428.233 C 3378.731 2423.25 3385.568 2421.397 3388.06 2416.413 C 3388.941 2414.651 3387.179 2412.265 3388.06 2410.503 C 3389.306 2408.011 3392.724 2407.085 3393.97 2404.593 C 3395.732 2401.069 3392.208 2396.297 3393.97 2392.773 C 3406.268 2368.176 3393.562 2399.091 3405.79 2386.862 C 3407.183 2385.469 3404.909 2382.714 3405.79 2380.952 C 3408.282 2375.968 3412.626 2371.624 3417.61 2369.132 C 3419.372 2368.251 3422.127 2370.525 3423.52 2369.132 C 3424.914 2367.739 3422.639 2364.984 3423.52 2363.222 C 3425.491 2359.282 3437.311 2347.461 3441.251 2345.491 C 3443.013 2344.61 3445.768 2346.884 3447.161 2345.491 C 3449.947 2342.705 3444.375 2336.457 3447.161 2333.671 C 3448.554 2332.278 3451.678 2335.064 3453.071 2333.671 C 3454.464 2332.278 3451.678 2329.154 3453.071 2327.761 C 3454.464 2326.368 3457.588 2329.154 3458.981 2327.761 C 3462.096 2324.646 3462.448 2319.606 3464.892 2315.941 C 3466.437 2313.622 3469.556 2312.522 3470.802 2310.03 C 3471.683 2308.268 3469.409 2305.513 3470.802 2304.12 C 3472.195 2302.727 3475.319 2305.513 3476.712 2304.12 C 3478.105 2302.727 3475.831 2299.972 3476.712 2298.21 C 3489.011 2273.612 3476.304 2304.529 3488.532 2292.3 C 3489.925 2290.907 3487.651 2288.152 3488.532 2286.39 C 3489.778 2283.898 3493.197 2282.972 3494.443 2280.48 C 3495.324 2278.717 3493.05 2275.962 3494.443 2274.569 C 3495.836 2273.176 3498.96 2275.962 3500.353 2274.569 C 3501.746 2273.176 3499.73 2270.528 3500.353 2268.659 C 3501.746 2264.48 3503.148 2259.954 3506.263 2256.839 C 3507.656 2255.446 3510.78 2258.232 3512.173 2256.839 C 3513.566 2255.446 3511.292 2252.691 3512.173 2250.929 C 3515.719 2243.836 3526.357 2240.29 3529.904 2233.198 C 3530.785 2231.436 3528.511 2228.681 3529.904 2227.288 C 3531.297 2225.895 3534.421 2228.681 3535.814 2227.288 C 3538.769 2224.333 3532.859 2212.513 3535.814 2209.557 C 3537.207 2208.164 3540.843 2211.32 3541.724 2209.557 C 3543.486 2206.033 3540.768 2201.56 3541.724 2197.737 C 3542.792 2193.464 3546.77 2190.236 3547.634 2185.917 C 3548.793 2180.121 3545.439 2173.674 3547.634 2168.186 C 3549.703 2163.013 3556.962 2161.35 3559.454 2156.366 C 3570.908 2133.459 3573.639 2105.933 3589.005 2085.444 C 3592.348 2080.986 3597.735 2078.26 3600.825 2073.624 C 3601.918 2071.984 3600.202 2069.582 3600.825 2067.713 C 3602.218 2063.534 3604.292 2059.558 3606.736 2055.893 C 3608.281 2053.575 3611.765 2052.626 3612.646 2049.983 C 3613.892 2046.245 3611.4 2041.901 3612.646 2038.163 C 3614.408 2032.876 3622.704 2031.629 3624.466 2026.342 C 3625.712 2022.604 3623.22 2018.26 3624.466 2014.522 C 3626.228 2009.236 3633.794 2007.686 3636.286 2002.702 C 3639.072 1997.13 3639.883 1990.755 3642.197 1984.971 C 3642.197 1984.969 3654.017 1961.333 3654.017 1961.331 C 3654.973 1957.508 3652.255 1953.034 3654.017 1949.51 C 3656.509 1944.526 3662.971 1942.468 3665.837 1937.69 C 3672.248 1927.006 3673.03 1913.798 3677.658 1902.229 C 3680.93 1894.049 3687.341 1887.136 3689.478 1878.588 C 3696.24 1851.54 3677.54 1884.733 3695.388 1849.037 C 3697.88 1844.054 3705.446 1842.503 3707.208 1837.217 C 3707.209 1837.217 3707.208 1813.577 3707.208 1813.576 C 3708.09 1811.814 3712.238 1815.338 3713.119 1813.576 C 3715.483 1808.848 3710.755 1800.574 3713.119 1795.846 C 3714.365 1793.354 3717.783 1792.428 3719.029 1789.936 C 3721.672 1784.65 3719.029 1778.115 3719.029 1772.205 C 3719.029 1762.355 3719.029 1752.505 3719.029 1742.655 C 3719.029 1726.894 3719.029 1711.134 3719.029 1695.373 C 3719.029 1691.433 3717.783 1687.291 3719.029 1683.553 C 3719.91 1680.91 3724.058 1680.286 3724.939 1677.643 C 3727.95 1668.61 3724.939 1651.772 3724.939 1642.182 C 3724.939 1636.271 3722.296 1629.737 3724.939 1624.451 C 3726.185 1621.959 3730.173 1621.244 3730.849 1618.541 C 3734.055 1605.716 3730.849 1584.632 3730.849 1571.26 C 3730.849 1536.606 3727.421 1499.158 3730.849 1464.877 C 3731.469 1458.678 3735.537 1453.255 3736.759 1447.146 C 3738.691 1437.487 3736.759 1427.446 3736.759 1417.595 C 3736.759 1391.985 3736.759 1366.374 3736.759 1340.763 C 3736.759 1326.973 3736.759 1313.182 3736.759 1299.392 C 3736.759 1295.452 3738.223 1291.23 3736.759 1287.572 C 3734.121 1280.977 3728.116 1276.195 3724.939 1269.841 C 3699.683 1219.329 3735.609 1284.121 3719.029 1234.38 C 3716.783 1227.642 3710.007 1223.179 3707.208 1216.65 C 3696.024 1190.553 3695.176 1160.026 3683.568 1133.907 C 3678.201 1121.831 3672.255 1109.999 3665.837 1098.447 C 3662.388 1092.237 3656.655 1087.311 3654.017 1080.716 C 3652.554 1077.058 3655.263 1072.634 3654.017 1068.896 C 3653.136 1066.253 3649.652 1065.304 3648.107 1062.985 C 3645.663 1059.32 3644.64 1054.83 3642.197 1051.165 C 3640.651 1048.847 3637.167 1047.898 3636.286 1045.255 C 3635.04 1041.517 3637.532 1037.173 3636.286 1033.435 C 3635.405 1030.792 3631.922 1029.843 3630.376 1027.525 C 3573.152 941.688 3689.337 1106.139 3612.646 1003.884 C 3557.404 930.229 3683.601 1085.19 3594.915 974.333 C 3582.812 959.204 3565.438 948.254 3553.544 932.962 C 3544.822 921.748 3538.161 909.061 3529.904 897.501 C 3528.284 895.234 3525.239 894.083 3523.993 891.591 C 3523.112 889.829 3524.874 887.443 3523.993 885.681 C 3522.747 883.189 3519.329 882.262 3518.083 879.77 C 3517.202 878.008 3519.476 875.253 3518.083 873.86 C 3516.69 872.467 3513.566 875.253 3512.173 873.86 C 3510.78 872.467 3513.054 869.712 3512.173 867.95 C 3510.927 865.458 3507.509 864.532 3506.263 862.04 C 3505.382 860.278 3507.656 857.523 3506.263 856.13 C 3504.87 854.737 3502.115 857.011 3500.353 856.13 C 3489.472 850.689 3499.413 843.84 3488.532 838.399 C 3486.77 837.518 3484.261 839.492 3482.622 838.399 C 3470.36 830.225 3458.02 811.987 3447.161 802.938 C 3436.248 793.844 3422.486 788.543 3411.7 779.298 C 3399.008 768.419 3386.682 756.89 3376.239 743.837 C 3371.802 738.29 3369.442 731.129 3364.419 726.106 C 3359.396 721.083 3352.235 718.723 3346.688 714.286 C 3332.437 702.885 3320.653 689.049 3305.317 678.825 C 3305.317 678.825 3281.677 667.005 3281.676 667.004 C 3267.322 652.65 3283.434 658.326 3269.856 649.274 C 3260.127 642.788 3250.035 638.03 3240.305 631.543 C 3233.351 626.907 3229.262 618.828 3222.575 613.813 C 3219.051 611.17 3214.279 610.546 3210.755 607.903 C 3201.839 601.216 3196.67 589.996 3187.114 584.262 C 3181.772 581.057 3174.726 581.557 3169.384 578.352 C 3158.382 571.751 3150.105 556.505 3139.833 548.801 C 3136.308 546.158 3131.127 546.006 3128.012 542.891 C 3124.897 539.776 3125.767 533.514 3122.102 531.071 C 3118.824 528.885 3114.02 532.317 3110.282 531.071 C 3104.996 529.309 3103.445 521.742 3098.461 519.25 C 3096.699 518.369 3093.944 520.643 3092.551 519.25 C 3091.158 517.857 3093.944 514.733 3092.551 513.34 C 3091.158 511.947 3088.034 514.733 3086.641 513.34 C 3085.248 511.947 3088.034 508.823 3086.641 507.43 C 3083.855 504.644 3077.607 510.216 3074.821 507.43 C 3073.428 506.037 3076.214 502.913 3074.821 501.52 C 3071.706 498.405 3066.778 497.876 3063 495.61 C 2978.313 444.797 3106.188 517.203 3027.54 477.879 C 3017.265 472.742 3008.073 465.649 2997.989 460.149 C 2986.387 453.82 2973.524 449.749 2962.528 442.418 C 2843.099 362.799 3046.157 481.278 2921.156 418.778 C 2916.173 416.286 2913.794 410.301 2909.336 406.957 C 2905.812 404.314 2901.181 403.491 2897.516 401.047 C 2895.198 399.502 2894.098 396.383 2891.606 395.137 C 2889.844 394.256 2887.564 395.76 2885.696 395.137 C 2873.284 391 2862.646 381.543 2850.235 377.406 C 2846.497 376.16 2841.938 379.168 2838.414 377.406 C 2811.366 363.882 2863.494 379.856 2820.684 365.586 C 2818.815 364.963 2816.643 366.209 2814.774 365.586 C 2778.089 353.358 2834.415 366.064 2785.223 353.766 C 2783.311 353.288 2781.075 354.647 2779.312 353.766 C 2774.329 351.274 2772.476 344.437 2767.492 341.945 C 2763.968 340.183 2759.41 343.191 2755.672 341.945 C 2735.298 335.154 2751.294 336.035 2737.941 336.035 C 2734.001 336.035 2728.907 338.821 2726.121 336.035 C 2724.728 334.642 2727.514 331.518 2726.121 330.125 C 2723.335 327.339 2718.241 330.125 2714.301 330.125 C 2707.12 330.125 2697.375 332.363 2690.66 330.125 C 2686.481 328.732 2683.019 325.608 2678.84 324.215 C 2668.202 320.669 2654.017 327.761 2643.379 324.215 C 2640.736 323.334 2639.787 319.85 2637.468 318.305 C 2633.803 315.861 2629.827 313.788 2625.648 312.395 C 2618.556 310.03 2609.1 314.759 2602.008 312.395 C 2599.364 311.514 2598.589 307.73 2596.097 306.484 C 2594.335 305.603 2592.056 307.107 2590.187 306.484 C 2586.008 305.091 2582.641 301.643 2578.367 300.574 C 2568.485 298.104 2551.885 305.064 2542.906 300.574 C 2540.414 299.328 2539.639 295.545 2536.996 294.664 C 2529.821 292.273 2515.462 294.664 2507.445 294.664 C 2505.475 294.664 2502.928 296.057 2501.535 294.664 C 2493.655 286.784 2511.385 288.754 2495.625 288.754 C 2475.924 288.754 2456.224 288.754 2436.523 288.754 C 2429.923 288.754 2419.092 290.824 2412.882 288.754 C 2408.703 287.361 2405.241 284.237 2401.062 282.844 C 2395.743 281.071 2388.651 284.617 2383.332 282.844 C 2380.688 281.963 2379.913 278.18 2377.421 276.934 C 2373.897 275.171 2369.541 276.934 2365.601 276.934 C 2355.751 276.934 2345.901 276.934 2336.05 276.934 C 2332.11 276.934 2327.016 279.72 2324.23 276.934 C 2322.837 275.541 2325.623 272.416 2324.23 271.023 C 2321.444 268.237 2316.35 271.023 2312.41 271.023 C 2298.264 271.023 2278.694 274.415 2265.128 271.023 C 2260.855 269.955 2257.581 266.182 2253.308 265.113 C 2249.485 264.158 2245.31 266.069 2241.488 265.113 C 2237.214 264.045 2233.941 260.272 2229.667 259.203 C 2137.318 236.116 2306.48 286.778 2206.027 253.293 C 2200.42 251.424 2194.206 253.293 2188.296 253.293 C 2186.326 253.293 2183.779 254.686 2182.386 253.293 C 2180.993 251.9 2184.148 248.264 2182.386 247.383 C 2172.93 242.655 2156.381 252.111 2146.925 247.383 C 2144.433 246.137 2143.507 242.719 2141.015 241.473 C 2137.491 239.711 2131.98 244.259 2129.194 241.473 C 2127.801 240.08 2130.587 236.955 2129.194 235.562 C 2127.801 234.169 2125.254 235.562 2123.284 235.562 C 2116.684 235.562 2105.853 237.632 2099.644 235.562 C 2086.507 231.184 2078.418 227.301 2064.183 223.742 C 2052.346 220.783 2035.061 223.742 2022.812 223.742 C 1993.261 223.742 1963.71 223.742 1934.159 223.742 C 1913.434 223.742 1889.525 227.138 1869.147 223.742 C 1863.002 222.718 1857.526 219.054 1851.417 217.832 C 1835.081 214.565 1815.033 217.832 1798.225 217.832 C 1754.884 217.832 1711.543 217.832 1668.202 217.832 C 1628.8 217.832 1589.399 217.832 1549.998 217.832 C 1538.178 217.832 1526.358 217.832 1514.537 217.832 C 1510.597 217.832 1506.241 216.07 1502.717 217.832 C 1500.225 219.078 1499.299 222.496 1496.807 223.742 C 1491.521 226.385 1484.81 222.309 1479.076 223.742 C 1466.682 226.841 1456.127 238.97 1443.615 241.473 C 1437.82 242.632 1431.372 239.278 1425.885 241.473 C 1420.711 243.542 1419.238 251.223 1414.064 253.293 C 1408.577 255.488 1402.129 252.134 1396.334 253.293 C 1392.014 254.157 1388.604 257.567 1384.514 259.203 C 1374.763 263.103 1364.714 267.123 1354.963 271.023 C 1335.866 278.662 1314.656 280.4 1295.861 288.754 C 1238.133 314.411 1322.855 289.606 1272.221 306.484 C 1270.352 307.107 1268.179 305.861 1266.31 306.484 C 1262.131 307.877 1258.669 311.002 1254.49 312.395 C 1252.621 313.018 1250.342 311.514 1248.58 312.395 C 1246.088 313.641 1245.162 317.059 1242.67 318.305 C 1240.908 319.186 1238.628 317.682 1236.76 318.305 C 1236.759 318.305 1213.119 330.125 1213.119 330.125 C 1209.296 331.081 1205.121 329.169 1201.299 330.125 C 1197.025 331.193 1193.657 334.642 1189.478 336.035 C 1187.609 336.658 1185.33 335.154 1183.568 336.035 C 1181.076 337.281 1180.15 340.699 1177.658 341.945 C 1174.506 343.521 1168.99 340.369 1165.838 341.945 C 1163.346 343.191 1162.57 346.975 1159.927 347.856 C 1079.212 374.761 1197.639 326.045 1142.197 353.766 C 1140.435 354.647 1138.198 353.288 1136.287 353.766 C 1087.094 366.064 1143.421 353.358 1106.736 365.586 C 1102.998 366.832 1098.654 364.34 1094.916 365.586 C 1087.823 367.95 1078.367 375.042 1071.275 377.406 C 1065.668 379.275 1059.278 375.973 1053.544 377.406 C 1036.404 381.692 1046.628 382.017 1035.814 389.227 C 1028.483 394.114 1019.504 396.16 1012.173 401.047 C 1009.855 402.592 1008.906 406.076 1006.263 406.957 C 992.218 411.639 995.529 399.961 982.622 412.867 C 981.229 414.26 984.015 417.384 982.622 418.778 C 981.229 420.171 978.474 417.896 976.712 418.778 C 971.728 421.269 970.178 428.836 964.892 430.598 C 961.154 431.844 956.894 429.642 953.072 430.598 C 867.537 451.982 989.411 424.395 935.341 442.418 C 931.603 443.664 927.259 441.172 923.521 442.418 C 918.235 444.18 916.987 452.476 911.7 454.239 C 907.963 455.484 903.618 452.993 899.88 454.239 C 894.594 456.001 893.044 463.567 888.06 466.059 C 886.298 466.94 883.789 464.966 882.15 466.059 C 877.513 469.15 874.787 474.536 870.329 477.879 C 863.281 483.165 854.019 484.812 846.689 489.7 C 842.052 492.79 840.155 499.758 834.868 501.52 C 831.13 502.766 826.786 500.274 823.048 501.52 C 820.405 502.401 819.456 505.885 817.138 507.43 C 813.472 509.874 808.983 510.897 805.317 513.34 C 800.681 516.431 798.133 522.07 793.497 525.16 C 789.832 527.604 784.792 527.956 781.677 531.071 C 778.562 534.186 778.882 539.776 775.767 542.891 C 772.652 546.006 767.724 546.535 763.946 548.801 C 757.855 552.456 752.569 557.445 746.216 560.621 C 744.454 561.503 741.945 559.529 740.306 560.621 C 735.669 563.712 732.943 569.099 728.485 572.442 C 724.961 575.085 719.78 575.237 716.665 578.352 C 713.55 581.467 713.87 587.057 710.755 590.172 C 707.64 593.287 702.6 593.639 698.935 596.082 C 694.298 599.173 691.75 604.812 687.114 607.903 C 683.449 610.346 678.409 610.698 675.294 613.813 C 672.179 616.928 672.499 622.518 669.384 625.633 C 667.991 627.026 664.867 624.24 663.474 625.633 C 662.081 627.026 664.867 630.15 663.474 631.543 C 662.081 632.937 659.203 630.451 657.563 631.543 C 652.927 634.634 649.683 639.424 645.743 643.364 C 637.863 651.244 629.983 659.124 622.102 667.004 C 622.102 667.005 610.282 678.825 610.282 678.825 C 608.52 679.706 606.134 677.944 604.372 678.825 C 592.982 684.52 585.314 701.38 574.821 708.376 C 573.182 709.468 570.304 706.983 568.911 708.376 C 565.796 711.491 565.444 716.531 563.001 720.196 C 558.364 727.15 551.957 732.911 545.27 737.926 C 541.746 740.57 536.565 740.722 533.45 743.837 C 530.335 746.952 530.183 752.133 527.54 755.657 C 522.525 762.344 515.719 767.477 509.809 773.387 C 503.454 779.743 494.157 791.703 486.169 797.028 C 482.503 799.472 478.014 800.495 474.348 802.938 C 465.459 808.864 466.178 821.799 456.618 826.579 C 454.856 827.46 452.47 825.698 450.708 826.579 C 450.707 826.579 438.887 838.399 438.887 838.399 C 438.006 840.161 440.28 842.916 438.887 844.309 C 426.659 856.538 439.365 825.623 427.067 850.22 C 426.186 851.982 427.948 854.368 427.067 856.13 C 425.821 858.622 422.403 859.548 421.157 862.04 C 420.276 863.802 422.55 866.557 421.157 867.95 C 408.928 880.178 421.635 849.264 409.336 873.86 C 408.455 875.622 410.217 878.008 409.336 879.77 C 405.79 886.863 395.152 890.409 391.606 897.501 C 390.725 899.263 392.999 902.018 391.606 903.411 C 390.213 904.804 387.089 902.018 385.696 903.411 C 384.303 904.804 387.089 907.928 385.696 909.321 C 384.303 910.714 380.667 907.559 379.786 909.321 C 378.024 912.845 381.548 917.617 379.786 921.142 C 378.905 922.904 375.638 920.261 373.875 921.142 C 371.384 922.388 369.211 924.56 367.965 927.052 C 367.084 928.814 368.846 931.2 367.965 932.962 C 365.473 937.946 361.129 942.29 356.145 944.782 C 354.383 945.663 351.116 943.02 350.235 944.782 C 348.473 948.306 351.481 952.865 350.235 956.603 C 349.354 959.246 345.87 960.195 344.325 962.513 C 341.881 966.178 341.058 970.809 338.414 974.333 C 330.327 985.116 316.337 992.673 308.864 1003.884 C 307.771 1005.523 309.745 1008.032 308.864 1009.794 C 302.953 1021.614 285.223 1027.524 279.313 1039.345 C 278.432 1041.107 280.706 1043.862 279.313 1045.255 C 277.92 1046.648 274.796 1043.862 273.403 1045.255 C 272.01 1046.648 274.284 1049.403 273.403 1051.165 C 267.492 1062.985 249.762 1068.896 243.852 1080.716 C 242.971 1082.478 244.733 1084.864 243.852 1086.626 C 242.606 1089.118 239.487 1090.218 237.942 1092.536 C 235.498 1096.202 235.146 1101.242 232.032 1104.357 C 230.638 1105.75 227.514 1102.964 226.121 1104.357 C 223.335 1107.143 228.907 1113.391 226.121 1116.177 C 224.728 1117.57 221.604 1114.784 220.211 1116.177 C 218.818 1117.57 221.092 1120.325 220.211 1122.087 C 218.965 1124.579 215.547 1125.505 214.301 1127.997 C 213.42 1129.759 215.182 1132.145 214.301 1133.907 C 211.809 1138.891 205.572 1141.091 202.481 1145.728 C 200.037 1149.393 199.014 1153.883 196.571 1157.548 C 195.025 1159.866 191.906 1160.966 190.66 1163.458 C 173.746 1197.287 194.332 1167.189 178.84 1193.009 C 175.185 1199.1 169.658 1204.145 167.02 1210.74 C 165.556 1214.398 168.782 1219.036 167.02 1222.56 C 164.528 1227.544 158.066 1229.602 155.199 1234.38 C 139.901 1259.878 154.439 1243.333 149.289 1263.931 C 145.004 1281.072 144.678 1270.848 137.469 1281.662 C 137.469 1281.662 125.649 1305.302 125.649 1305.302 C 111.788 1346.884 146.644 1263.312 119.738 1317.123 C 118.857 1318.885 121.131 1321.64 119.738 1323.033 C 118.345 1324.426 115.221 1321.64 113.828 1323.033 C 111.042 1325.819 115.59 1331.329 113.828 1334.853 C 112.582 1337.345 109.164 1338.271 107.918 1340.763 C 107.037 1342.525 108.541 1344.804 107.918 1346.673 C 103.854 1358.865 93.299 1369.687 90.188 1382.134 C 89.232 1385.957 91.434 1390.217 90.188 1393.955 C 89.307 1396.598 85.523 1397.373 84.277 1399.865 C 78.761 1410.897 89.794 1430.204 84.277 1441.236 C 83.031 1443.728 79.613 1444.654 78.367 1447.146 C 76.583 1450.715 81.099 1462.145 78.367 1464.877 C 76.974 1466.27 73.85 1463.484 72.457 1464.877 C 71.064 1466.27 72.457 1468.817 72.457 1470.787 C 72.457 1476.697 72.457 1482.607 72.457 1488.517 C 72.457 1506.248 72.457 1523.978 72.457 1541.709 C 72.457 1616.571 72.457 1691.433 72.457 1766.295 C 72.457 1793.876 72.457 1821.457 72.457 1849.037 C 72.457 1858.888 72.457 1868.738 72.457 1878.588 C 72.457 1880.558 71.576 1882.736 72.457 1884.498 C 73.703 1886.99 77.486 1887.765 78.367 1890.409 C 80.985 1898.263 74.615 1912.455 78.367 1919.959 C 79.613 1922.451 83.031 1923.378 84.277 1925.87 C 86.641 1930.598 81.913 1938.872 84.277 1943.6 C 85.523 1946.092 88.942 1947.018 90.188 1949.51 C 93.319 1955.773 87.955 1966.454 90.188 1973.151 C 93.775 1983.912 98.421 1991.941 102.008 2002.702 C 103.781 2008.021 100.235 2015.113 102.008 2020.432 C 103.77 2025.718 112.066 2026.966 113.828 2032.253 C 115.074 2035.99 112.582 2040.335 113.828 2044.073 C 115.59 2049.359 123.157 2050.909 125.649 2055.893 C 127.411 2059.417 123.886 2064.189 125.649 2067.713 C 126.895 2070.205 130.313 2071.132 131.559 2073.624 C 132.44 2075.386 130.678 2077.772 131.559 2079.534 C 132.805 2082.026 136.223 2082.952 137.469 2085.444 C 139.231 2088.968 134.683 2094.478 137.469 2097.264 C 138.862 2098.657 142.498 2095.502 143.379 2097.264 C 145.141 2100.788 142.133 2105.347 143.379 2109.085 C 144.26 2111.728 148.043 2112.503 149.289 2114.995 C 151.051 2118.519 147.527 2123.291 149.289 2126.815 C 151.781 2131.799 158.618 2133.652 161.11 2138.636 C 162.894 2142.204 158.377 2153.634 161.11 2156.366 C 162.503 2157.759 165.627 2154.973 167.02 2156.366 C 169.975 2159.321 164.065 2171.141 167.02 2174.097 C 168.413 2175.49 172.049 2172.334 172.93 2174.097 C 174.692 2177.621 171.684 2182.179 172.93 2185.917 C 173.811 2188.56 177.594 2189.335 178.84 2191.827 C 179.721 2193.589 177.959 2195.975 178.84 2197.737 C 180.086 2200.229 183.504 2201.155 184.75 2203.647 C 186.512 2207.171 181.964 2212.682 184.75 2215.468 C 186.143 2216.861 189.267 2214.075 190.66 2215.468 C 192.053 2216.861 189.779 2219.616 190.66 2221.378 C 191.906 2223.87 195.325 2224.796 196.571 2227.288 C 197.452 2229.05 195.689 2231.436 196.571 2233.198 C 197.816 2235.69 201.235 2236.616 202.481 2239.108 C 203.362 2240.87 201.6 2243.256 202.481 2245.018 C 203.727 2247.51 207.145 2248.437 208.391 2250.929 C 215.669 2265.485 191.235 2245.593 214.301 2268.659 C 215.694 2270.052 218.818 2267.266 220.211 2268.659 C 221.604 2270.052 219.33 2272.807 220.211 2274.569 C 221.457 2277.061 224.875 2277.988 226.121 2280.48 C 227.002 2282.242 225.24 2284.628 226.121 2286.39 C 227.367 2288.882 230.486 2289.982 232.032 2292.3 C 234.475 2295.965 235.498 2300.455 237.942 2304.12 C 241.033 2308.757 247.27 2310.957 249.762 2315.941 C 250.643 2317.703 248.881 2320.089 249.762 2321.851 C 253.308 2328.943 263.946 2332.489 267.493 2339.581 C 269.255 2343.105 264.706 2348.615 267.493 2351.401 C 268.886 2352.794 272.01 2350.008 273.403 2351.401 C 274.796 2352.794 272.522 2355.55 273.403 2357.312 C 278.131 2366.768 292.315 2371.496 297.043 2380.952 C 297.924 2382.714 295.65 2385.469 297.043 2386.862 C 298.436 2388.255 302.072 2385.1 302.953 2386.862 C 304.716 2390.387 301.191 2395.159 302.953 2398.683 C 303.835 2400.445 307.102 2397.802 308.864 2398.683 C 318.659 2403.58 319.896 2415.625 326.594 2422.323 C 327.987 2423.716 331.111 2420.93 332.504 2422.323 C 333.897 2423.716 331.111 2426.84 332.504 2428.233 C 333.897 2429.627 337.021 2426.84 338.414 2428.233 C 341.529 2431.348 341.21 2436.939 344.325 2440.054 C 345.718 2441.447 348.473 2439.173 350.235 2440.054 C 361.944 2445.909 368.841 2462.309 379.786 2469.605 C 390.683 2476.87 408.859 2486.381 415.247 2499.156 C 416.128 2500.918 413.854 2503.673 415.247 2505.066 C 416.64 2506.459 419.395 2504.185 421.157 2505.066 C 430.613 2509.794 435.341 2523.978 444.797 2528.706 C 446.56 2529.587 449.315 2527.313 450.708 2528.706 C 452.101 2530.099 449.615 2532.977 450.708 2534.617 C 460.646 2549.525 479.503 2563.412 492.079 2575.988 C 496.874 2580.783 503.788 2590.707 509.809 2593.718 C 511.571 2594.599 514.326 2592.325 515.719 2593.718 C 517.112 2595.111 514.326 2598.235 515.719 2599.628 C 517.112 2601.021 519.867 2598.747 521.63 2599.628 C 530.986 2604.307 536.527 2617.44 545.27 2623.269 C 548.936 2625.713 553.976 2626.064 557.091 2629.179 C 569.319 2641.408 538.404 2628.701 563.001 2641 C 564.763 2641.881 567.149 2640.119 568.911 2641 C 571.403 2642.246 572.503 2645.364 574.821 2646.91 C 578.486 2649.353 583.526 2649.705 586.641 2652.82 C 588.034 2654.213 585.76 2656.968 586.641 2658.73 C 587.887 2661.222 590.582 2662.67 592.552 2664.64 C 594.522 2666.61 595.97 2669.304 598.462 2670.55 C 600.224 2671.431 602.979 2669.157 604.372 2670.55 C 607.487 2673.665 606.617 2679.927 610.282 2682.371 C 613.56 2684.556 618.578 2680.609 622.102 2682.371 C 623.864 2683.252 621.221 2686.519 622.102 2688.281 C 624.072 2692.221 635.893 2704.041 639.833 2706.011 C 641.595 2706.892 643.981 2705.13 645.743 2706.011 C 648.235 2707.257 649.161 2710.676 651.653 2711.921 C 653.415 2712.803 655.801 2711.04 657.563 2711.921 C 666.492 2716.386 671.81 2732.431 681.204 2735.562 C 684.942 2736.808 689.746 2733.377 693.024 2735.562 C 696.69 2738.006 695.82 2744.267 698.935 2747.382 C 700.328 2748.775 703.083 2746.501 704.845 2747.382 C 714.301 2752.111 719.029 2766.295 728.485 2771.023 C 730.247 2771.904 733.002 2769.63 734.395 2771.023 C 735.789 2772.416 733.002 2775.54 734.395 2776.933 C 734.396 2776.933 746.216 2776.933 746.216 2776.933 C 752.862 2780.256 756.945 2792.33 763.946 2794.664 C 767.684 2795.91 772.981 2791.878 775.767 2794.664 C 778.553 2797.45 772.981 2803.698 775.767 2806.484 C 778.553 2809.27 784.063 2804.722 787.587 2806.484 C 789.349 2807.365 786.706 2810.632 787.587 2812.394 C 788.833 2814.886 791.005 2817.059 793.497 2818.305 C 795.259 2819.186 797.645 2817.424 799.407 2818.305 C 801.899 2819.551 802.826 2822.969 805.317 2824.215 C 807.08 2825.096 809.466 2823.334 811.228 2824.215 C 816.212 2826.707 818.412 2832.944 823.048 2836.035 C 826.713 2838.479 830.689 2840.552 834.868 2841.945 C 836.737 2842.568 839.385 2840.552 840.778 2841.945 C 843.893 2845.06 843.574 2850.651 846.689 2853.765 C 849.475 2856.552 856.747 2850.241 858.509 2853.765 C 860.271 2857.29 855.723 2862.8 858.509 2865.586 C 861.295 2868.372 866.591 2864.34 870.329 2865.586 C 872.972 2866.467 873.921 2869.951 876.239 2871.496 C 879.905 2873.939 884.394 2874.963 888.06 2877.406 C 894.879 2881.952 898.971 2890.59 905.79 2895.137 C 909.456 2897.58 914.496 2897.932 917.611 2901.047 C 919.004 2902.44 916.218 2905.564 917.611 2906.957 C 919.004 2908.35 921.759 2906.076 923.521 2906.957 C 926.013 2908.203 926.939 2911.621 929.431 2912.867 C 937.583 2916.943 934.717 2905.71 941.251 2918.777 C 957.011 2950.298 923.521 2901.047 947.161 2924.687 C 948.555 2926.08 945.768 2929.204 947.161 2930.598 C 949.948 2933.384 956.196 2927.811 958.982 2930.598 C 960.375 2931.991 957.589 2935.115 958.982 2936.508 C 960.375 2937.901 963.499 2935.115 964.892 2936.508 C 966.285 2937.901 963.499 2941.025 964.892 2942.418 C 966.285 2943.811 969.409 2941.025 970.802 2942.418 C 972.195 2943.811 969.409 2946.935 970.802 2948.328 C 970.802 2948.328 994.443 2960.148 994.443 2960.149 C 996.761 2961.694 998.035 2964.513 1000.353 2966.059 C 1004.018 2968.502 1009.058 2968.854 1012.173 2971.969 C 1013.566 2973.362 1010.411 2976.998 1012.173 2977.879 C 1079.155 3011.37 997.398 2957.193 1023.994 2983.789 C 1026.78 2986.575 1033.028 2981.003 1035.814 2983.789 C 1037.207 2985.182 1034.052 2988.818 1035.814 2989.699 C 1039.338 2991.461 1044.356 2987.514 1047.634 2989.699 C 1054.875 2994.527 1050.376 3004.404 1059.455 3007.43 C 1063.192 3008.676 1067.452 3006.474 1071.275 3007.43 C 1088.416 3011.715 1078.191 3012.041 1089.005 3019.25 C 1092.671 3021.694 1097.711 3022.045 1100.826 3025.16 C 1102.219 3026.553 1099.433 3029.677 1100.826 3031.07 C 1103.612 3033.856 1109.122 3029.308 1112.646 3031.07 C 1117.63 3033.562 1119.18 3041.129 1124.466 3042.891 C 1128.204 3044.137 1132.464 3041.935 1136.287 3042.891 C 1164.827 3050.026 1135.994 3045.699 1154.017 3054.711 C 1155.779 3055.592 1158.165 3053.83 1159.927 3054.711 C 1164.911 3057.203 1166.461 3064.769 1171.748 3066.531 C 1175.486 3067.777 1179.83 3065.285 1183.568 3066.531 C 1186.211 3067.412 1186.835 3071.56 1189.478 3072.441 C 1193.216 3073.687 1197.774 3070.679 1201.299 3072.441 C 1203.061 3073.323 1199.906 3076.959 1201.299 3078.352 C 1202.692 3079.745 1205.447 3077.471 1207.209 3078.352 C 1209.701 3079.598 1210.627 3083.016 1213.119 3084.262 C 1214.881 3085.143 1217.267 3083.381 1219.029 3084.262 C 1221.521 3085.508 1222.447 3088.926 1224.939 3090.172 C 1226.701 3091.053 1229.087 3089.291 1230.849 3090.172 C 1235.687 3092.591 1243.742 3099.573 1248.58 3101.992 C 1252.52 3103.962 1256.221 3106.509 1260.4 3107.902 C 1262.269 3108.525 1264.671 3106.81 1266.31 3107.902 C 1270.947 3110.993 1273.494 3116.632 1278.131 3119.723 C 1281.409 3121.909 1286.427 3117.961 1289.951 3119.723 C 1294.935 3122.215 1296.787 3129.051 1301.771 3131.543 C 1303.533 3132.424 1305.813 3130.92 1307.681 3131.543 C 1311.861 3132.936 1315.323 3136.06 1319.502 3137.453 C 1337.095 3143.318 1307.375 3123.459 1337.232 3143.364 C 1339.55 3144.909 1340.65 3148.028 1343.142 3149.274 C 1378.329 3166.867 1291.679 3109.054 1360.873 3155.184 C 1365.509 3158.275 1367.288 3165.653 1372.693 3167.004 C 1378.427 3168.438 1384.69 3165.571 1390.424 3167.004 C 1393.127 3167.68 1394.016 3171.369 1396.334 3172.914 C 1403.665 3177.801 1412.644 3179.848 1419.975 3184.735 C 1422.293 3186.28 1423.393 3189.399 1425.885 3190.645 C 1429.037 3192.221 1434.553 3189.069 1437.705 3190.645 C 1442.689 3193.137 1444.239 3200.703 1449.525 3202.465 C 1453.263 3203.711 1457.822 3200.703 1461.346 3202.465 C 1517.164 3230.374 1334.771 3168.154 1473.166 3214.285 C 1476.904 3215.531 1481.249 3213.04 1484.986 3214.285 C 1527.796 3228.555 1475.668 3212.582 1502.717 3226.106 C 1537.905 3243.7 1451.248 3185.883 1520.447 3232.016 C 1522.766 3233.561 1523.715 3237.045 1526.358 3237.926 C 1530.096 3239.172 1534.654 3236.164 1538.178 3237.926 C 1539.94 3238.807 1536.785 3242.443 1538.178 3243.836 C 1539.571 3245.229 1542.326 3242.955 1544.088 3243.836 C 1599.53 3271.557 1481.104 3222.842 1561.819 3249.746 C 1567.105 3251.508 1568.655 3259.075 1573.639 3261.567 C 1577.163 3263.329 1581.935 3259.805 1585.459 3261.567 C 1587.951 3262.813 1588.726 3266.596 1591.369 3267.477 C 1595.107 3268.723 1599.666 3265.715 1603.19 3267.477 C 1604.952 3268.358 1601.797 3271.994 1603.19 3273.387 C 1604.583 3274.78 1607.338 3272.506 1609.1 3273.387 C 1611.592 3274.633 1612.367 3278.416 1615.01 3279.297 C 1618.748 3280.543 1623.008 3278.342 1626.83 3279.297 C 1639.278 3282.409 1650.1 3292.964 1662.291 3297.028 C 1664.16 3297.651 1666.333 3296.405 1668.202 3297.028 C 1672.381 3298.421 1675.748 3301.87 1680.022 3302.938 C 1683.844 3303.894 1688.104 3301.692 1691.842 3302.938 C 1743.723 3320.232 1666.232 3298.998 1697.752 3314.758 C 1701.277 3316.52 1706.049 3312.996 1709.573 3314.758 C 1711.335 3315.639 1707.811 3319.788 1709.573 3320.669 C 1713.097 3322.431 1717.655 3319.423 1721.393 3320.669 C 1724.036 3321.55 1724.811 3325.333 1727.303 3326.579 C 1729.065 3327.46 1731.82 3325.186 1733.213 3326.579 C 1734.606 3327.972 1731.82 3331.096 1733.213 3332.489 C 1735.999 3335.275 1741.51 3330.727 1745.034 3332.489 C 1747.526 3333.735 1748.452 3337.153 1750.944 3338.399 C 1754.096 3339.975 1759.612 3336.823 1762.764 3338.399 C 1787.361 3350.697 1756.446 3337.991 1768.674 3350.219 C 1771.46 3353.005 1776.971 3348.457 1780.495 3350.219 C 1782.987 3351.465 1783.913 3354.884 1786.405 3356.129 C 1789.929 3357.892 1795.439 3353.343 1798.225 3356.129 C 1799.618 3357.523 1796.832 3360.647 1798.225 3362.04 C 1801.011 3364.826 1806.521 3360.278 1810.046 3362.04 C 1812.537 3363.286 1813.464 3366.704 1815.956 3367.95 C 1817.718 3368.831 1820.473 3366.557 1821.866 3367.95 C 1823.259 3369.343 1820.473 3372.467 1821.866 3373.86 C 1824.652 3376.646 1830.9 3371.074 1833.686 3373.86 C 1835.079 3375.253 1832.293 3378.377 1833.686 3379.77 C 1835.079 3381.163 1837.626 3379.77 1839.596 3379.77 C 1847.477 3379.77 1855.357 3379.77 1863.237 3379.77 C 1865.207 3379.77 1867.754 3378.377 1869.147 3379.77 C 1870.54 3381.163 1867.177 3385.68 1869.147 3385.68"/>
    <g>
      <path d="M1829 3439 c-133 -19 -278 -88 -599 -286 -107 -66 -253 -153 -325 -193 -71 -40 -155 -88 -185 -108 -202 -129 -398 -329 -515 -527 -280 -473 -227 -1048 134 -1475 70 -82 357 -366 431 -425 222 -179 513 -314 845 -392 l120 -28 365 0 365 0 120 28 c707 167 1206 589 1350 1144 23 87 25 114 25 308 0 194 -2 221 -25 308 -46 180 -134 350 -256 501 -73 90 -405 417 -484 478 -83 62 -144 101 -330 205 -88 50 -239 139 -335 198 -379 234 -526 290 -701 264z m163 -130 c81 -17 232 -93 448 -226 107 -66 254 -152 325 -193 298 -168 376 -223 513 -360 451 -453 495 -1083 108 -1569 -510 -642 -1575 -844 -2392 -452 -431 207 -718 534 -816 928 -29 118 -31 347 -5 473 50 230 171 443 358 629 113 113 219 190 406 295 87 50 253 148 368 219 394 241 524 290 687 256z"/>
    </g>
    <path d="M1197 2066 c-193 -72 -249 -312 -106 -455 48 -48 106 -73 180 -79 56 -4 75 -1 120 20 63 29 111 73 142 132 31 59 31 183 0 242 -29 54 -75 99 -127 126 -52 27 -156 34 -209 14z m74 -105 c23 -23 29 -38 29 -71 0 -91 -106 -135 -171 -71 -64 65 -20 171 71 171 33 0 48 -6 71 -29z"/>
    <path d="M2444 2070 c-112 -35 -195 -148 -193 -263 1 -116 51 -197 153 -247 60 -30 72 -32 133 -28 84 6 137 32 192 94 42 48 71 121 71 179 0 93 -69 204 -154 247 -46 24 -153 33 -202 18z m74 -115 c54 -63 4 -164 -80 -165 -56 0 -100 43 -102 97 -2 97 117 141 182 68z"/>
    <path d="M1550 1372 c-75 -61 69 -296 229 -375 129 -63 245 -35 372 92 72 72 119 155 126 225 9 76 11 76 -373 76 -307 0 -333 -1 -354 -18z m487 -187 c77 -39 81 -47 34 -84 -113 -90 -205 -92 -324 -8 l-28 19 28 30 c67 72 194 90 290 43z"/>
  </g>
</svg>